<svg xmlns="http://www.w3.org/2000/svg" xmlns:xlink="http://www.w3.org/1999/xlink" version="1.1" x="0px" y="0px" width="100px" height="100px" viewBox="5.0 -10.0 100.0 135.0" enable-background="new 0 0 100 100" xml:space="preserve">
<g id="Captions">
</g>
<g id="Your_Icon">
	<path fill="#000000" d="M35.918,89.887c-10.345,0-18.76-9.651-18.76-21.514h8.064c0,7.413,4.798,13.445,10.696,13.445   c5.839,0,10.772-6.198,10.772-13.534V31.309c0-11.812,8.382-21.422,18.681-21.422c10.346,0,18.76,9.651,18.76,21.512h-8.062   c0-7.413-4.797-13.445-10.697-13.445c-5.854,0-10.615,5.991-10.615,13.354v36.976C54.756,80.194,46.303,89.887,35.918,89.887z"/>
	<g>
		<path fill="#000000" d="M20.903,34.245C12.12,34.245,5,41.367,5,50.155s7.12,15.91,15.903,15.91    c8.783,0,15.901-7.122,15.901-15.91S29.687,34.245,20.903,34.245z M23.971,55.473L23.2,53.341h-4.557l-0.846,2.132h-3.445    l4.823-12.555h3.555l4.723,12.555H23.971z"/>
		<polygon fill="#000000" points="19.553,50.877 22.335,50.877 20.922,46.815   "/>
	</g>
	<g>
		<path fill="#000000" d="M80.236,50.3h-0.674v2.61h0.738c1.055,0,1.729-0.171,2.016-0.51c0.178-0.199,0.266-0.468,0.26-0.802    c0-0.381-0.105-0.677-0.316-0.891C81.984,50.437,81.311,50.3,80.236,50.3z"/>
		<path fill="#000000" d="M81.406,47.44c0.203-0.202,0.305-0.48,0.305-0.835c0-0.337-0.102-0.62-0.305-0.845    c-0.252-0.252-0.668-0.378-1.244-0.378h-0.6v2.455h0.6C80.738,47.836,81.154,47.704,81.406,47.44z"/>
		<path fill="#000000" d="M80.098,33.971c-8.783,0-15.902,7.122-15.902,15.91c0,8.787,7.119,15.908,15.902,15.908    S96,58.668,96,49.881C96,41.093,88.881,33.971,80.098,33.971z M84.902,54.284c-0.76,0.792-1.889,1.188-3.383,1.188h-5.211V42.917    h4.881c1.248,0,2.17,0.322,2.76,0.964c0.516,0.558,0.775,1.334,0.775,2.326c0,0.556-0.121,1.074-0.365,1.553    c-0.254,0.469-0.6,0.798-1.037,0.989c0.689,0.074,1.248,0.325,1.678,0.755c0.551,0.542,0.828,1.31,0.828,2.304    C85.828,52.842,85.518,53.669,84.902,54.284z"/>
	</g>
</g>
<text x="0.0" y="117.5" font-size="5.0" font-weight="bold" font-family="Helvetica Neue, Helvetica, Arial-Unicode, Arial, Sans-serif" fill="#000000">Created by Alexey Ivanov</text><text x="0.0" y="122.5" font-size="5.0" font-weight="bold" font-family="Helvetica Neue, Helvetica, Arial-Unicode, Arial, Sans-serif" fill="#000000">from the Noun Project</text></svg>